# xmcd
# 
# Track frame offsets:
#     150
#     15684
#     29985
#     55455
#     75642
# 
# Disc length: 1212
# 
# Revision: 3
# Processed by: cddbd v1.5.2PL0 Copyright (c) Steve Scherf et al.
# Submitted via: BonkEnc v1.0
# 
DISCID=3e04ba05
DTITLE=Rascal Flatts - Me And My Gang Bonus
DYEAR=0
DGENRE=Country
TTITLE0=This Everyday Love
TTITLE1=Then I Did
TTITLE2=I'm Movin' On
TTITLE3=Here's To You
TTITLE4=Feels Like Today
EXTD=
EXTT0=
EXTT1=
EXTT2=
EXTT3=
EXTT4=
PLAYORDER=
